<?xml version="1.0" encoding="utf-8"?>
<!-- Generator: Adobe Illustrator 24.2.3, SVG Export Plug-In . SVG Version: 6.00 Build 0)  -->
<svg version="1.1" id="Layer_1" xmlns="http://www.w3.org/2000/svg" xmlns:xlink="http://www.w3.org/1999/xlink" x="0px" y="0px"
	 viewBox="0 0 20 20" style="enable-background:new 0 0 20 20;" xml:space="preserve">
<style type="text/css">
	.st0{fill:#205445;}
	.st1{fill:#FFFFFF;}
</style>
<g>
	<rect x="0" y="0" class="st0" width="20" height="20"/>
</g>
<g>
	<path class="st1" d="M5.6,15.4V4.6H4.1V4h6.1c1.8,0,3.2,0.6,4.2,1.7s1.5,2.5,1.5,4.2c0,0.9-0.2,1.7-0.5,2.5
		c-0.3,0.8-0.8,1.5-1.4,2.1c-0.7,0.6-1.3,1-2,1.2c-0.7,0.2-1.5,0.3-2.5,0.3H4.1v-0.6H5.6z M8.5,4.6v10.8h0.9c1.4,0,2.3-0.4,2.6-1.3
		c0.3-0.9,0.5-2.3,0.5-4.4c0-1.6-0.1-2.8-0.3-3.5c-0.2-0.7-0.5-1.2-0.8-1.4c-0.4-0.2-0.9-0.3-1.4-0.3H8.5z"/>
</g>
</svg>
