<?xml version="1.0" encoding="utf-8"?>
<!-- Generator: Adobe Illustrator 24.2.3, SVG Export Plug-In . SVG Version: 6.00 Build 0)  -->
<svg version="1.1" id="Layer_1" xmlns="http://www.w3.org/2000/svg" xmlns:xlink="http://www.w3.org/1999/xlink" x="0px" y="0px"
	 viewBox="0 0 48 25" style="enable-background:new 0 0 48 25;" xml:space="preserve">
<style type="text/css">
	.st0{fill:#FFFFFF;}
</style>
<path class="st0" d="M9.9,18l-2.6,6.9H1.7l9.6-24.4h7L28,24.9h-5.9L19.4,18H9.9z M18.5,14.7l-2.4-6c-0.6-1.5-1.1-3.1-1.5-4.6h-0.1
	c-0.4,1.4-0.9,3.1-1.4,4.6l-2.3,6H18.5z"/>
<path class="st0" d="M46.9,20.7c0,1.5,0.1,2.9,0.4,3.9h-4.9L42,22.8h-0.1c-1.3,1.3-3.5,2.2-6.3,2.2c-4.3,0-6.7-2.4-6.7-4.9
	c0-4.1,4.8-6.2,12.7-6.2v-0.3c0-1.1-0.6-2.9-4.4-2.9c-2.1,0-4.3,0.5-5.8,1.2l-1.1-2.7c1.6-0.7,4.4-1.4,7.7-1.4
	c6.9,0,8.8,3.3,8.8,6.9V20.7z M41.6,16.6c-3.8,0-7.5,0.6-7.5,3.1c0,1.6,1.4,2.3,3.1,2.3c2.2,0,3.7-1.1,4.3-2.2
	c0.1-0.3,0.1-0.6,0.1-0.9V16.6z"/>
</svg>
