<svg xmlns="http://www.w3.org/2000/svg" viewBox="0 0 50 25.63"><defs><style>.cls-1{fill:#fff;}</style></defs><g id="Layer_2" data-name="Layer 2"><g id="Layer_1-2" data-name="Layer 1"><path class="cls-1" d="M29.34,25.16H15V23.3c2.68,0,3.63-.31,3.63-1.34a10.19,10.19,0,0,0-.83-2.91l-.9-2.33H8.24l-.71,2.09a17.37,17.37,0,0,0-.87,3c0,1.06,1.31,1.45,3.47,1.45v1.86H0V23.3c2.92,0,3.27-.67,4.69-4.77L10.84.87,10.49,0h7.1l7.17,18.65c1.42,3.67,2.29,4.54,4.58,4.65Zm-17-20.23L9.11,14.27H16Z"/><path class="cls-1" d="M50,23.42a8.82,8.82,0,0,1-5.32,2.21c-1.74,0-2.45-.55-3.08-2.33-1.69,1.7-3,2.33-4.93,2.33-3,0-5.08-1.73-5.08-4.3a3.76,3.76,0,0,1,1.22-2.92c2-2.05,6.39-1.93,8.63-4V13.6c0-1.69,0-3.11-2-3.11a1.85,1.85,0,0,0-1.89,1.93,1.75,1.75,0,0,0,.12.71l-5.52,2a5.76,5.76,0,0,1-.2-1.69C31.9,9.7,38,8.6,40.54,8.6c1.77,0,6.82.59,6.82,5v6.51c0,2.05.2,2.48.79,2.48a2.15,2.15,0,0,0,1.1-.39Zm-8.56-6.9c-1.14.83-2.52,1.22-3.31,2a2.67,2.67,0,0,0-.79,2.09c0,1.38.75,2.49,1.7,2.49.63,0,1.26-.48,2.4-1.5Z"/></g></g></svg>